<svg width="96" height="96" xmlns="http://www.w3.org/2000/svg" xmlns:xlink="http://www.w3.org/1999/xlink" xml:space="preserve" overflow="hidden"><g transform="translate(-748 -133)"><path d="M816.5 180C816.1 180 815.8 180 815.4 180.1 815.1 178.9 814.3 177.8 813 177.3L804.5 173.9 799 161.2 799 161.2C797.9 158.2 795 156 791.5 156 789.7 156 788.1 156.6 786.8 157.5L786.8 157.5 773.3 166.6C772.5 167.2 771.9 168 771.6 169L768.6 182C768.1 184.2 769.4 186.3 771.6 186.8 771.9 186.9 772.2 186.9 772.5 186.9 774.3 186.9 776 185.6 776.4 183.8L779 172.4 781.5 170.7C780.5 177.5 780.4 182.9 780.4 183.8L779.4 201.3 775.5 219C775 221.2 776.4 223.3 778.5 223.8 778.8 223.9 779.1 223.9 779.4 223.9 781.2 223.9 782.9 222.6 783.3 220.8L787.3 202.8C787.3 202.6 787.4 202.4 787.4 202.2L787.9 192.4 794.4 199.6 795.3 218.2C795.4 220.3 797.2 222 799.3 222 799.4 222 799.4 222 799.5 222 801.7 221.9 803.4 220 803.3 217.8L802.3 197.8C802.3 196.9 801.9 196 801.3 195.3L794.3 187.6 794.3 171.4C794.3 171.4 794.4 171.4 794.4 171.3L797.6 178.6C798 179.6 798.8 180.3 799.8 180.7L809.7 184.7C809.4 185.4 809.3 186.2 809.3 187 809.3 189.2 810.3 191.1 811.9 192.4 811.9 192.4 812 192.5 812 192.5 812.3 192.8 812.8 193 813.3 193 814.4 193 815.3 192.1 815.3 191 815.3 190.3 815 189.7 814.5 189.4 814 188.8 813.5 188 813.5 187 813.5 185.3 814.8 184 816.5 184 818.2 184 819.5 185.3 819.5 187L819.5 193.3 819.5 196 819.5 222C819.5 223.1 820.4 224 821.5 224 822.6 224 823.5 223.1 823.5 222L823.5 187C823.5 183.1 820.4 180 816.5 180Z" fill="#15C7C7"/><path d="M805 147C805 151.418 801.418 155 797 155 792.582 155 789 151.418 789 147 789 142.582 792.582 139 797 139 801.418 139 805 142.582 805 147Z" fill="#15C7C7"/></g></svg>