<svg width="96" height="96" xmlns="http://www.w3.org/2000/svg" xmlns:xlink="http://www.w3.org/1999/xlink" xml:space="preserve" overflow="hidden"><g transform="translate(-337 -396)"><path d="M399.93 446C396.55 443.12 392.16 441.77 388 440.47L388 416.29C392.039 416.674 395.814 418.469 398.66 421.36L403.46 416.76C399.352 412.581 393.848 410.064 388 409.69L388 401 382 401 382 410.07C379.945 410.47 377.963 411.178 376.12 412.17 368.54 416.3 364.67 426 367.78 434.17 370.19 440.47 376 443.28 382 445.39L382 471.57C377.35 471 373.49 468.33 370.29 465L365.49 469.59C367.776 472.183 370.501 474.353 373.54 476 376.197 477.264 379.066 478.02 382 478.23L382 487 388 487 388 478C394.88 476.85 401.2 472.62 403.92 466 406.64 459.38 405.65 450.89 399.93 446ZM377 435.73C371.5 431.09 372.84 422.11 378.67 418.39 379.703 417.727 380.824 417.212 382 416.86L382 438.55C380.19 437.892 378.5 436.939 377 435.73ZM395.09 467.55C393.138 469.458 390.676 470.76 388 471.3L388 447.41C392 448.78 396.59 450.52 398.22 454.78 399.85 459.04 398.21 464.37 395.09 467.55Z" fill="#15C7C7"/></g></svg>