<svg width="96" height="96" xmlns="http://www.w3.org/2000/svg" xmlns:xlink="http://www.w3.org/1999/xlink" xml:space="preserve" overflow="hidden"><g transform="translate(-645 -313)"><path d="M709.42 385 676.42 385C672.278 385 668.92 388.358 668.92 392.5 668.92 396.642 672.278 400 676.42 400L709.42 400C713.562 400 716.92 396.642 716.92 392.5 716.92 388.358 713.562 385 709.42 385ZM678.42 395.5C676.763 395.5 675.42 394.157 675.42 392.5 675.42 390.843 676.763 389.5 678.42 389.5 680.077 389.5 681.42 390.843 681.42 392.5 681.42 394.157 680.077 395.5 678.42 395.5ZM692.92 395.5C691.263 395.5 689.92 394.157 689.92 392.5 689.92 390.843 691.263 389.5 692.92 389.5 694.577 389.5 695.92 390.843 695.92 392.5 695.92 394.157 694.577 395.5 692.92 395.5ZM707.42 395.5C705.763 395.5 704.42 394.157 704.42 392.5 704.42 390.843 705.763 389.5 707.42 389.5 709.077 389.5 710.42 390.843 710.42 392.5 710.42 394.157 709.077 395.5 707.42 395.5Z" fill="#15C7C7"/><path d="M699.83 341C699.83 341.828 699.158 342.5 698.33 342.5 697.502 342.5 696.83 341.828 696.83 341 696.83 340.172 697.502 339.5 698.33 339.5 699.158 339.5 699.83 340.172 699.83 341Z" fill="#15C7C7"/><path d="M701.61 331 695 331 695 326.45C696.913 325.345 697.569 322.899 696.464 320.986 695.359 319.073 692.913 318.417 691 319.522 689.087 320.626 688.431 323.073 689.536 324.986 689.887 325.594 690.392 326.099 691 326.45L691 331 684.39 331C681.968 331.005 680.005 332.968 680 335.39L680 346.61C680.005 349.032 681.968 350.995 684.39 351L701.61 351C704.032 350.995 705.995 349.032 706 346.61L706 335.39C705.995 332.968 704.032 331.005 701.61 331ZM688 344C686.343 344 685 342.657 685 341 685 339.343 686.343 338 688 338 689.657 338 691 339.343 691 341 691 342.657 689.657 344 688 344ZM698 344C696.343 344 695 342.657 695 341 695 339.343 696.343 338 698 338 699.657 338 701 339.343 701 341 701 342.657 699.657 344 698 344Z" fill="#15C7C7"/><path d="M689.83 341C689.83 341.828 689.158 342.5 688.33 342.5 687.502 342.5 686.83 341.828 686.83 341 686.83 340.172 687.502 339.5 688.33 339.5 689.158 339.5 689.83 340.172 689.83 341Z" fill="#15C7C7"/><path d="M719 371.82 719 363.49C719 361.01 716.99 359 714.51 359L709 359 709 354 677 354 677 360 669.49 360C669.219 360 669 359.781 669 359.51L669 351.22C672.438 350.205 674.401 346.595 673.386 343.158 673.114 342.236 672.641 341.386 672 340.67L669 343.33C669.42 343.786 669.658 344.38 669.67 345 669.662 346.381 668.537 347.494 667.156 347.486 665.776 347.479 664.663 346.354 664.67 344.973 664.673 344.376 664.89 343.801 665.28 343.35L662.28 340.72C659.923 343.428 660.208 347.534 662.915 349.89 663.528 350.424 664.235 350.837 665 351.11L665 359.51C665 361.99 667.01 364 669.49 364L677 364 677 382 709 382 709 363 714.51 363C714.781 363 715 363.219 715 363.49L715 371.82C711.584 372.925 709.711 376.59 710.816 380.005 711.093 380.86 711.544 381.648 712.14 382.32L715.14 379.66C714.726 379.206 714.498 378.614 714.5 378 714.501 376.619 715.621 375.501 717.002 375.502 718.383 375.503 719.501 376.624 719.5 378.004 719.5 378.61 719.279 379.195 718.88 379.65L721.88 382.28C724.246 379.588 723.982 375.487 721.289 373.121 720.623 372.535 719.844 372.093 719 371.82ZM705 368 702.22 368C702.123 368.017 702.031 368.055 701.95 368.11L698.89 371.24 696.56 365.72 692.21 374.72 689.16 363 686.81 368 682 368 682 366 685.54 366 689.7 357.15 692.78 368.93 696.69 360.93 699.57 367.75 700.57 366.75C701.009 366.306 701.596 366.039 702.22 366L705 366Z" fill="#15C7C7"/></g></svg>