<svg width="63" height="64" xmlns="http://www.w3.org/2000/svg" xmlns:xlink="http://www.w3.org/1999/xlink" xml:space="preserve" overflow="hidden"><g transform="translate(-146 -301)"><path d="M32.1562 5.68378 9.84375 19.2065 9.84375 44.2273 32.1562 57.75 54.4688 44.2273 54.4688 19.2065ZM52.5466 19.5766 43.1484 25.2722 22.7581 12.9143 32.1562 7.21875ZM32.1562 31.9338 11.7659 19.5766 21.4922 13.6815 41.8825 26.0393ZM11.1562 20.7408 31.5 33.0711 31.5 55.8173 11.1562 43.4877ZM32.8125 55.8173 32.8125 33.0711 53.1562 20.7408 53.1562 43.4877Z" fill="#15C7C7" transform="matrix(1 0 0 1.01587 146 301)"/><path d="M36.0747 34.2005 35.4375 34.5844 35.4375 40.2708 37.4253 39.0784 40.7065 37.1096 41.3438 36.7257 41.3438 31.0406 39.356 32.233ZM40.0312 35.9828 36.75 37.9516 36.75 35.3266 40.0312 33.3578Z" fill="#15C7C7" transform="matrix(1 0 0 1.01587 146 301)"/></g></svg>