<svg width="96" height="96" xmlns="http://www.w3.org/2000/svg" xmlns:xlink="http://www.w3.org/1999/xlink" xml:space="preserve" overflow="hidden"><g transform="translate(-754 -397)"><path d="M832.5 414.5 831.5 405.5 820.5 416.5 821.1 421.7 805.1 437.7C803.7 437 802.1 436.5 800.4 436.5 794.9 436.5 790.4 441 790.4 446.5 790.4 452 794.9 456.5 800.4 456.5 805.9 456.5 810.4 452 810.4 446.5 810.4 444.8 810 443.3 809.3 441.9L825.3 425.9 830.5 426.5 841.5 415.5 832.5 414.5Z" fill="#15C7C7"/><path d="M833.3 429.3 832 430.7 830.1 430.5 828 430.2C830.8 435 832.5 440.5 832.5 446.5 832.5 464.1 818.1 478.5 800.5 478.5 782.9 478.5 768.5 464.1 768.5 446.5 768.5 428.9 782.9 414.5 800.5 414.5 806.4 414.5 812 416.1 816.8 419L816.6 417 816.3 415 817.7 413.6 818.4 412.9C813 410.1 807 408.5 800.5 408.5 779.5 408.5 762.5 425.5 762.5 446.5 762.5 467.5 779.5 484.5 800.5 484.5 821.5 484.5 838.5 467.5 838.5 446.5 838.5 440 836.9 434 834 428.7L833.3 429.3Z" fill="#15C7C7"/><path d="M817.2 439.7C818.1 441.8 818.5 444.1 818.5 446.5 818.5 456.4 810.4 464.5 800.5 464.5 790.6 464.5 782.5 456.4 782.5 446.5 782.5 436.6 790.6 428.5 800.5 428.5 802.9 428.5 805.2 429 807.3 429.8L811.8 425.3C808.4 423.5 804.6 422.5 800.5 422.5 787.3 422.5 776.5 433.3 776.5 446.5 776.5 459.7 787.3 470.5 800.5 470.5 813.7 470.5 824.5 459.7 824.5 446.5 824.5 442.4 823.5 438.6 821.7 435.2L817.2 439.7Z" fill="#15C7C7"/></g></svg>