<svg width="63" height="63" xmlns="http://www.w3.org/2000/svg" xmlns:xlink="http://www.w3.org/1999/xlink" xml:space="preserve" overflow="hidden"><g transform="translate(-1058 -299)"><path d="M1093.77 332.87C1096.31 332.87 1098.36 334.927 1098.36 337.464 1098.36 340.001 1096.31 342.058 1093.77 342.058 1091.23 342.058 1089.18 340.001 1089.18 337.464 1089.18 334.929 1091.23 332.874 1093.77 332.87M1093.77 331.558C1090.51 331.558 1087.86 334.202 1087.86 337.464 1087.86 340.726 1090.51 343.37 1093.77 343.37 1097.03 343.37 1099.68 340.726 1099.68 337.464 1099.68 334.202 1097.03 331.558 1093.77 331.558Z" fill="#15C7C7"/><path d="M1105.6 356.764 1104.28 356.764 1104.28 351.178C1104.31 350.507 1103.99 349.869 1103.44 349.479 1101.9 348.274 1100.12 347.419 1098.21 346.976 1096.77 346.539 1095.27 346.294 1093.75 346.248 1092.27 346.255 1090.79 346.495 1089.39 346.96 1087.49 347.476 1085.7 348.329 1084.1 349.477 1083.57 349.885 1083.26 350.514 1083.26 351.183L1083.26 356.766 1081.95 356.766 1081.95 351.178C1081.95 350.096 1082.46 349.078 1083.32 348.422 1085.04 347.184 1086.97 346.264 1089.01 345.705 1090.54 345.201 1092.15 344.942 1093.77 344.938 1095.39 344.984 1097 345.244 1098.55 345.71 1100.62 346.193 1102.55 347.121 1104.23 348.429 1105.11 349.067 1105.63 350.104 1105.59 351.197Z" fill="#15C7C7"/><path d="M1077.7 323.666C1080.24 323.666 1082.3 325.723 1082.3 328.26 1082.3 330.797 1080.24 332.854 1077.7 332.854 1075.17 332.854 1073.11 330.797 1073.11 328.26 1073.11 325.725 1075.17 323.67 1077.7 323.666M1077.7 322.354C1074.44 322.354 1071.8 324.998 1071.8 328.26 1071.8 331.522 1074.44 334.166 1077.7 334.166 1080.97 334.166 1083.61 331.522 1083.61 328.26 1083.61 324.998 1080.97 322.354 1077.7 322.354Z" fill="#15C7C7"/><path d="M1086.59 338.156C1085.31 337.399 1083.93 336.843 1082.49 336.505 1080.93 336.038 1079.32 335.778 1077.7 335.732 1076.08 335.736 1074.48 335.995 1072.94 336.501 1070.9 337.058 1068.97 337.978 1067.25 339.217 1066.39 339.873 1065.88 340.891 1065.88 341.973L1065.88 347.562 1067.19 347.562 1067.19 341.978C1067.19 341.309 1067.5 340.68 1068.03 340.272 1069.63 339.124 1071.42 338.272 1073.31 337.755 1074.73 337.29 1076.2 337.05 1077.69 337.044 1079.2 337.09 1080.7 337.336 1082.15 337.773 1083.91 338.185 1085.57 338.947 1087.03 340.016 1086.8 339.418 1086.65 338.793 1086.59 338.156Z" fill="#15C7C7"/><path d="M1111.38 305.562C1111.42 305.564 1111.45 305.596 1111.45 305.635L1111.45 322.559C1111.45 322.595 1111.43 322.625 1111.39 322.632L1095.43 322.632 1095.05 323.025 1091.85 326.274 1091.85 322.63 1086.61 322.63C1086.58 322.63 1086.55 322.594 1086.55 322.538L1086.55 305.628C1086.55 305.596 1086.57 305.569 1086.6 305.562L1111.38 305.562M1111.39 304.25 1086.6 304.25C1085.85 304.257 1085.23 304.876 1085.24 305.635L1085.24 322.538C1085.22 323.299 1085.83 323.928 1086.59 323.943L1090.54 323.943 1090.54 329.483 1095.98 323.943 1111.39 323.943C1112.15 323.936 1112.76 323.318 1112.76 322.558L1112.76 305.635C1112.76 304.876 1112.15 304.258 1111.39 304.25Z" fill="#15C7C7"/><path d="M1098.93 307.454 1098.87 307.454C1098.72 307.446 1098.56 307.446 1098.41 307.454 1096.33 307.579 1094.72 309.327 1094.77 311.41L1094.77 311.49 1096.09 311.49 1096.09 311.407C1096.09 311.308 1096.09 311.209 1096.1 311.11 1096.22 309.784 1097.33 308.769 1098.66 308.774 1098.73 308.774 1098.8 308.777 1098.87 308.784L1098.98 308.784C1100.49 308.81 1101.69 310.054 1101.67 311.565 1101.67 313.082 1100.55 314.102 1098.88 314.102L1098.23 314.102 1098.23 317.329 1099.55 317.329 1099.55 315.383 1099.75 315.358C1101.65 315.123 1103.06 313.474 1102.99 311.559L1102.99 311.469C1102.96 309.248 1101.16 307.462 1098.93 307.454Z" fill="#15C7C7"/><path d="M1098.88 320.656C1098.29 320.657 1097.81 320.174 1097.81 319.579 1097.81 318.984 1098.29 318.501 1098.88 318.501 1099.47 318.501 1099.95 318.974 1099.96 319.564 1099.97 320.155 1099.5 320.644 1098.91 320.656 1098.91 320.656 1098.91 320.656 1098.91 320.656Z" fill="#15C7C7"/></g></svg>