<svg width="96" height="96" xmlns="http://www.w3.org/2000/svg" xmlns:xlink="http://www.w3.org/1999/xlink" xml:space="preserve" overflow="hidden"><g transform="translate(-825 -84)"><path d="M907.9 123.1C907.6 123.1 907.3 123.1 907 123.1L904.4 116.1C910.4 112.7 912.5 105.1 909.2 99.1 905.8 93.1 898.2 91 892.2 94.3 889.3 95.9 887.1 98.7 886.3 101.9L877 100.9C876.3 96.5 872.2 93.4 867.8 94.1 863.8 94.7 860.9 98.1 860.9 102.1 860.9 103.5 861.3 104.9 862 106.2L850.8 117.2C848.7 115.6 846.1 114.7 843.4 114.7 836.5 114.7 830.9 120.3 830.9 127.2 830.9 134.1 836.5 139.7 843.4 139.7L845.9 154.7C841.8 156.5 839.9 161.3 841.7 165.4 843.5 169.5 848.3 171.4 852.4 169.6 856.2 168 858.1 163.8 857 159.8L865.8 155.2C871.5 161.5 881.3 162 887.7 156.3 890.9 153.4 892.8 149.2 892.8 144.9 892.8 143.8 892.7 142.6 892.4 141.5L902.1 136.5C905.1 139.9 910.2 140.2 913.6 137.2 917 134.2 917.3 129.1 914.3 125.7 912.4 124.1 910.2 123.1 907.9 123.1L907.9 123.1ZM907.9 126.1C909.2 126.1 910.2 127.1 910.2 128.4 910.2 129.7 909.2 130.7 907.9 130.7 906.6 130.7 905.6 129.7 905.6 128.4 905.6 128.4 905.6 128.4 905.6 128.4 905.6 127.1 906.6 126.1 907.9 126.1L907.9 126.1ZM898.3 97.6C900.2 97.6 901.8 99.2 901.8 101.1 901.8 103 900.2 104.6 898.3 104.6 896.4 104.6 894.8 103 894.8 101.1 894.8 101.1 894.8 101.1 894.8 101.1 894.8 99.2 896.3 97.6 898.3 97.6ZM891.2 109C891.2 108.5 891.5 107.9 891.9 107.6 892.9 106.9 894.1 106.3 895.3 106 896.2 105.7 897.2 105.6 898.2 105.6 899.2 105.6 900.2 105.8 901.1 106 902.3 106.3 903.5 106.9 904.5 107.7 904.9 108 905.2 108.6 905.2 109.1L905.2 111.8 891.2 111.8 891.2 109ZM868.9 97C870.2 97 871.2 98 871.2 99.3 871.2 100.6 870.2 101.6 868.9 101.6 867.6 101.6 866.6 100.6 866.6 99.3 866.6 99.3 866.6 99.3 866.6 99.3 866.6 98.1 867.6 97 868.9 97L868.9 97ZM864.2 104.5C864.2 104.1 864.4 103.8 864.7 103.6 865.4 103.1 866.2 102.8 867 102.6 867.6 102.4 868.3 102.3 868.9 102.3 869.5 102.3 870.2 102.4 870.8 102.6 871.6 102.8 872.3 103.2 873 103.7 873.3 103.9 873.5 104.3 873.5 104.6L873.5 106.4 864.3 106.4 864.3 104.5ZM843.2 119.6C845.1 119.6 846.7 121.2 846.7 123.1 846.7 125 845.1 126.6 843.2 126.6 841.3 126.6 839.7 125 839.7 123.1 839.7 123.1 839.7 123.1 839.7 123.1 839.8 121.2 841.3 119.6 843.2 119.6L843.2 119.6ZM836.2 133.7 836.2 131C836.2 130.5 836.5 129.9 836.9 129.6 837.9 128.9 839.1 128.3 840.3 128 841.2 127.7 842.2 127.6 843.2 127.6 844.2 127.6 845.2 127.8 846.1 128 847.3 128.3 848.5 128.9 849.5 129.7 849.9 130 850.2 130.6 850.2 131.1L850.2 133.8 836.2 133.7ZM853.5 166.3 844.2 166.3 844.2 164.5C844.2 164.1 844.4 163.8 844.7 163.6 845.4 163.1 846.2 162.7 847 162.5 847.6 162.3 848.3 162.2 848.9 162.2 849.5 162.2 850.2 162.3 850.8 162.5 851.6 162.7 852.3 163.1 853 163.6 853.3 163.8 853.5 164.2 853.5 164.5L853.5 166.3ZM846.5 159.3C846.5 158 847.5 157 848.8 157 850.1 157 851.1 158 851.1 159.3 851.1 160.6 850.1 161.6 848.8 161.6 847.6 161.7 846.6 160.6 846.5 159.3L846.5 159.3ZM854.5 156.5C853.2 155.2 851.4 154.4 849.6 154.2L847.1 139.2C849.5 138.4 851.6 136.9 853.1 134.9L862.4 139.8C860.9 143.8 861.2 148.3 863.2 152.1L854.5 156.5ZM864.3 136.1 855.1 131.3C855.5 130 855.7 128.7 855.7 127.3 855.7 124.7 854.9 122.2 853.4 120.1L864.6 109.2C868.4 111.5 873.4 110.4 875.7 106.6 876 106.1 876.2 105.6 876.4 105.1L885.7 106.1C885.9 109.7 887.7 113.1 890.6 115.3L882.4 130.6C875.9 128 868.4 130.3 864.3 136.1L864.3 136.1ZM881.3 139.8C881.3 142.2 879.3 144.1 876.9 144.1 874.5 144.1 872.6 142.2 872.6 139.8 872.6 137.4 874.5 135.5 876.9 135.5 876.9 135.5 876.9 135.5 877 135.5 879.4 135.5 881.3 137.4 881.3 139.8L881.3 139.8ZM885.6 152.9 868.3 152.9 868.3 149.6C868.3 148.9 868.6 148.3 869.2 147.9 870.5 147 871.9 146.3 873.4 145.8 874.6 145.5 875.8 145.3 877 145.3 878.2 145.3 879.4 145.5 880.6 145.8 882.1 146.2 883.6 146.9 884.8 147.9 885.3 148.3 885.7 149 885.7 149.6L885.6 152.9ZM899.8 131.3C899.8 131.9 899.9 132.5 900.1 133.1L890.9 137.9C889.8 135.7 888.1 133.9 886.1 132.5L894.3 117.2C895.6 117.7 897 117.9 898.4 117.9 899.2 117.9 900 117.8 900.8 117.7L903.4 124.7C901 126.1 899.7 128.6 899.8 131.3ZM912.5 135.3 903.2 135.3 903.2 133.5C903.2 133.1 903.4 132.8 903.7 132.6 904.4 132.1 905.2 131.7 906 131.5 906.6 131.3 907.3 131.2 907.9 131.2 908.5 131.2 909.2 131.3 909.8 131.5 910.6 131.7 911.3 132.1 912 132.6 912.3 132.8 912.5 133.2 912.5 133.5L912.5 135.3Z" fill="#000099"/></g></svg>