<svg width="63" height="64" xmlns="http://www.w3.org/2000/svg" xmlns:xlink="http://www.w3.org/1999/xlink" xml:space="preserve" overflow="hidden"><g transform="translate(-755 -301)"><path d="M51.0326 9.1875 11.9674 9.1875 7.89863 24.1087 7.875 28.2188C7.8769 29.8858 8.92835 31.3709 10.5 31.9266L10.5 53.8125 52.5 53.8125 52.5 31.9266C54.0717 31.3709 55.1231 29.8858 55.125 28.2188L55.125 24.2812ZM36.75 24.2222 35.5031 10.5 41.475 10.5 44.625 24.3547 44.625 26.9719C44.6228 29.1093 42.8906 30.8416 40.7531 30.8438L40.6219 30.8438C38.4844 30.8416 36.7522 29.1093 36.75 26.9719L36.75 24.2812ZM35.4375 26.9719C35.4353 29.1093 33.7031 30.8416 31.5656 30.8438L31.4344 30.8438C29.2969 30.8416 27.5647 29.1093 27.5625 26.9719L27.5625 24.3121 28.8179 10.5 34.1821 10.5 35.4375 24.2812ZM27.5002 10.5 26.25 24.2812 26.25 26.9719C26.2478 29.1093 24.5156 30.8416 22.3781 30.8438L22.2469 30.8438C20.1094 30.8416 18.3772 29.1093 18.375 26.9719L18.375 24.3547 21.525 10.5ZM17.0625 24.2812 17.0625 26.9719C17.0603 29.1093 15.3281 30.8416 13.1906 30.8438L11.8125 30.8438C10.3628 30.8438 9.1875 29.6685 9.1875 28.2188L9.1875 24.3692 12.9701 10.5 20.1777 10.5 17.0789 24.1356ZM34.125 52.5 34.125 37.4062 45.2812 37.4062 45.2812 52.5ZM51.1875 52.5 46.5938 52.5 46.5938 36.0938 32.8125 36.0938 32.8125 52.5 11.8125 52.5 11.8125 32.1562 13.1906 32.1562C15.072 32.1549 16.805 31.1345 17.7188 29.4899 18.6325 31.1345 20.3655 32.1549 22.2469 32.1562L22.3781 32.1562C24.2595 32.1549 25.9925 31.1345 26.9062 29.4899 27.82 31.1345 29.553 32.1549 31.4344 32.1562L31.5656 32.1562C33.447 32.1549 35.18 31.1345 36.0938 29.4899 37.0075 31.1345 38.7405 32.1549 40.6219 32.1562L40.7531 32.1562C42.6345 32.1549 44.3675 31.1345 45.2812 29.4899 46.195 31.1345 47.928 32.1549 49.8094 32.1562L51.1875 32.1562ZM53.8125 28.2188C53.8125 29.6685 52.6372 30.8438 51.1875 30.8438L49.8094 30.8438C47.6719 30.8416 45.9397 29.1093 45.9375 26.9719L45.9375 24.2812 42.8223 10.5 50.0299 10.5 53.8125 24.3692Z" fill="#15C7C7" transform="matrix(1 0 0 1.01587 755 301)"/><path d="M16.4062 47.25 27.5625 47.25 27.5625 36.0938 16.4062 36.0938ZM17.7188 37.4062 26.25 37.4062 26.25 45.9375 17.7188 45.9375Z" fill="#15C7C7" transform="matrix(1 0 0 1.01587 755 301)"/></g></svg>