<svg width="96" height="96" xmlns="http://www.w3.org/2000/svg" xmlns:xlink="http://www.w3.org/1999/xlink" xml:space="preserve" overflow="hidden"><g transform="translate(-293 -167)"><path d="M346.7 215C346.7 218.314 344.014 221 340.7 221 337.386 221 334.7 218.314 334.7 215 334.7 211.686 337.386 209 340.7 209 344.014 209 346.7 211.686 346.7 215Z" fill="#15C7C7"/><path d="M375.9 195C374.2 192.1 370.4 190.7 365.2 190.7 361.9 190.7 358.1 191.3 353.9 192.4 351 181.9 346.2 175 340.7 175 335.3 175 330.4 181.8 327.6 192.2 323.6 191.2 320 190.6 316.8 190.6 311.6 190.6 307.8 192 306.1 194.9 303.3 199.7 307 207.4 314.7 215.2 307.3 222.8 303.9 230.2 306.6 234.9 308.3 237.8 312.1 239.2 317.3 239.2 320.3 239.2 323.8 238.7 327.6 237.8 330.5 248.2 335.3 255 340.7 255 346.1 255 351 248.2 353.8 237.8 357.8 238.8 361.4 239.4 364.6 239.4 369.8 239.4 373.6 238 375.3 235.1 378 230.4 374.6 223 367.2 215.4 375.1 207.5 378.7 199.8 375.9 195ZM365.2 194.7C368.9 194.7 371.6 195.6 372.4 197 373.9 199.6 371.2 205.7 364.4 212.5 362 210.3 359.3 208.1 356.3 206 356 202.6 355.5 199.3 354.8 196.2 358.6 195.2 362.2 194.7 365.2 194.7ZM347.3 225.4C345.2 226.6 343.1 227.7 341 228.7 338.9 227.7 336.8 226.6 334.7 225.4 332.7 224.2 330.7 223 328.9 221.8 328.7 219.6 328.7 217.4 328.7 215 328.7 212.8 328.8 210.7 328.9 208.6 330.9 207.2 333 205.9 335.3 204.6 337.2 203.5 339.1 202.5 341 201.6 342.9 202.5 344.8 203.5 346.7 204.6 348.7 205.8 350.7 207 352.5 208.2 352.7 210.4 352.7 212.6 352.7 215 352.7 217.5 352.6 219.9 352.4 222.2 350.8 223.3 349.1 224.3 347.3 225.4ZM351.9 227.3C351.6 229.2 351.3 231.1 351 232.8 349.3 232.2 347.5 231.6 345.7 230.8 346.9 230.2 348.1 229.5 349.3 228.8 350.2 228.3 351.1 227.8 351.9 227.3ZM336.3 230.8C334.3 231.6 332.4 232.3 330.5 232.9 330.1 231 329.8 229 329.5 226.9 330.6 227.6 331.6 228.2 332.8 228.9 333.9 229.5 335.1 230.2 336.3 230.8ZM324.8 218.8C323.2 217.6 321.8 216.4 320.5 215.2 321.8 214 323.3 212.8 324.8 211.6 324.8 212.7 324.7 213.8 324.7 215 324.7 216.3 324.7 217.6 324.8 218.8ZM329.4 203.5C329.7 201.3 330 199.2 330.4 197.2 332.3 197.8 334.3 198.6 336.3 199.4 335.3 199.9 334.2 200.5 333.2 201.1 332 201.9 330.7 202.7 329.4 203.5ZM345.6 199.4C347.4 198.6 349.2 198 351 197.4 351.4 199.2 351.7 201.1 352 203.1 350.9 202.4 349.9 201.8 348.7 201.1 347.7 200.6 346.7 200 345.6 199.4ZM356.6 211.2C358.4 212.6 360 213.9 361.5 215.3 360 216.6 358.4 218 356.6 219.3 356.7 217.9 356.7 216.5 356.7 215.1 356.7 213.7 356.7 212.4 356.6 211.2ZM340.7 179C343.7 179 347.6 184.3 350.1 193.5 347.2 194.5 344.1 195.7 341 197.1 337.7 195.6 334.5 194.3 331.4 193.3 333.9 184.2 337.7 179 340.7 179ZM309.5 197C310.4 195.5 313 194.7 316.7 194.7 319.6 194.7 322.9 195.2 326.5 196.1 325.8 199.3 325.3 202.8 325 206.4 322.2 208.4 319.7 210.4 317.5 212.5 310.8 205.7 308 199.6 309.5 197ZM317.3 235.3C313.6 235.3 310.9 234.4 310.1 233 308.6 230.4 311.2 224.6 317.6 218 319.9 220 322.4 222 325.1 224 325.4 227.5 325.9 230.9 326.6 234 323.3 234.9 320.1 235.3 317.3 235.3ZM340.7 251C337.7 251 333.9 245.8 331.4 236.8 334.5 235.8 337.7 234.6 341 233.1 344.1 234.5 347.1 235.7 350 236.6 347.5 245.8 343.7 251 340.7 251ZM371.9 233C371 234.5 368.4 235.3 364.7 235.3 361.8 235.3 358.4 234.8 354.9 233.9 355.5 230.9 356 227.8 356.3 224.4 359.3 222.3 362 220.2 364.4 218 370.8 224.6 373.4 230.4 371.9 233Z" fill="#15C7C7"/></g></svg>