<svg width="63" height="64" xmlns="http://www.w3.org/2000/svg" xmlns:xlink="http://www.w3.org/1999/xlink" xml:space="preserve" overflow="hidden"><g transform="translate(-459 -298)"><path d="M31.5 13.125C32.7685 13.125 33.7969 12.0967 33.7969 10.8281 33.7969 9.55959 32.7685 8.53125 31.5 8.53125L31.4344 8.53125C30.1858 8.55356 29.1892 9.57941 29.2031 10.8281 29.2053 12.0957 30.2324 13.1228 31.5 13.125ZM30.7834 10.1325C30.9604 9.95052 31.2028 9.84657 31.4567 9.84375L31.5 9.84375C32.0436 9.84375 32.4844 10.2845 32.4843 10.8282 32.4843 11.3718 32.0436 11.8125 31.4999 11.8125 30.9562 11.8125 30.5156 11.3718 30.5156 10.8281 30.5156 10.8248 30.5156 10.8216 30.5156 10.8183 30.5097 10.5638 30.6059 10.3176 30.7827 10.1345Z" fill="#15C7C7" transform="matrix(1 0 0 1.01587 459 298)"/><path d="M30.8444 24.2799 44.6257 24.2799 44.6257 25.5924 30.8444 25.5924Z" fill="#15C7C7" transform="matrix(1 0 0 1.01587 459 298)"/><path d="M30.8444 32.1549 44.6257 32.1549 44.6257 33.4674 30.8444 33.4674Z" fill="#15C7C7" transform="matrix(1 0 0 1.01587 459 298)"/><path d="M30.8444 40.0299 44.6257 40.0299 44.6257 41.3424 30.8444 41.3424Z" fill="#15C7C7" transform="matrix(1 0 0 1.01587 459 298)"/><path d="M30.8444 47.9049 44.6257 47.9049 44.6257 49.2174 30.8444 49.2174Z" fill="#15C7C7" transform="matrix(1 0 0 1.01587 459 298)"/><path d="M24.1461 21.8485 21.985 24.0096 19.824 21.8485 18.8961 22.7765 21.0571 24.9375 18.8961 27.0985 19.824 28.0265 21.985 25.8654 24.1461 28.0265 25.074 27.0985 22.913 24.9375 25.074 22.7765 24.1461 21.8485Z" fill="#15C7C7" transform="matrix(1 0 0 1.01587 459 298)"/><path d="M24.1461 29.7235 21.985 31.8846 19.824 29.7235 18.8961 30.6515 21.0571 32.8125 18.8961 34.9735 19.824 35.9015 21.985 33.7404 24.1461 35.9015 25.074 34.9735 22.913 32.8125 25.074 30.6515 24.1461 29.7235Z" fill="#15C7C7" transform="matrix(1 0 0 1.01587 459 298)"/><path d="M19.6875 43.3125 24.9375 43.3125 24.9375 38.0625 19.6875 38.0625ZM21 39.375 23.625 39.375 23.625 42 21 42Z" fill="#15C7C7" transform="matrix(1 0 0 1.01587 459 298)"/><path d="M19.6875 51.1875 24.9375 51.1875 24.9375 45.9375 19.6875 45.9375ZM21 47.25 23.625 47.25 23.625 49.875 21 49.875Z" fill="#15C7C7" transform="matrix(1 0 0 1.01587 459 298)"/><path d="M51.1875 12.455C51.1875 11.0052 50.0122 9.82997 48.5625 9.82997L38.7188 9.82997 38.7188 8.51747C38.7166 6.70615 37.2488 5.23839 35.4375 5.23622L27.5625 5.23622C25.7512 5.23839 24.2834 6.70615 24.2812 8.51747L24.2812 9.82997 14.4375 9.82997C12.9878 9.82997 11.8125 11.0052 11.8125 12.455L11.8125 55.125C11.8125 56.5747 12.9878 57.75 14.4375 57.75L48.5625 57.75C50.0122 57.75 51.1875 56.5747 51.1875 55.125ZM22.9688 11.1425 25.5938 11.1425 25.5938 8.51747C25.5938 7.43013 26.4752 6.54872 27.5625 6.54872L35.4375 6.54872C36.5248 6.54872 37.4062 7.43013 37.4062 8.51747L37.4062 11.1425 40.0312 11.1425 40.0312 16.4062 22.9688 16.4062ZM48.5625 56.4375 14.4375 56.4375C13.7126 56.4375 13.125 55.8499 13.125 55.125L13.125 12.455C13.125 11.7301 13.7126 11.1425 14.4375 11.1425L21.6562 11.1425 21.6562 17.7188 41.3438 17.7188 41.3438 11.1425 48.5625 11.1425C49.2874 11.1425 49.875 11.7301 49.875 12.455L49.875 55.125C49.875 55.8499 49.2874 56.4375 48.5625 56.4375Z" fill="#15C7C7" transform="matrix(1 0 0 1.01587 459 298)"/></g></svg>