<svg width="96" height="96" xmlns="http://www.w3.org/2000/svg" xmlns:xlink="http://www.w3.org/1999/xlink" xml:space="preserve" overflow="hidden"><g transform="translate(-328 -131)"><path d="M399 175C395.1 175 392 171.9 392 168 392 164.1 395.1 161 399 161 402.9 161 406 164.1 406 168 406 171.9 402.9 175 399 175ZM410 168C410 161.9 405.1 157 399 157 392.9 157 388 161.9 388 168 388 173 391.4 177.3 396 178.6L396 202C396 210.3 389.3 217 381 217 372.7 217 366 210.3 366 202L366 191.8C376.2 190.3 384 181.6 384 171 384 169.5 383.2 168.2 382 167.6L382 143C382 140 379.7 137.5 376.8 137.1 376.4 135.9 375.3 135 374 135L373 135C370.8 135 369 136.8 369 139 369 141.2 370.8 143 373 143L374 143C375.2 143 376.3 142.2 376.8 141.2 377.5 141.5 378 142.2 378 143L378 167.6C376.8 168.3 376 169.6 376 171 376 178.2 370.2 184 363 184 355.8 184 350 178.2 350 171 350 169.5 349.2 168.2 348 167.6L348 143C348 142.2 348.5 141.5 349.2 141.2 349.7 142.3 350.7 143 352 143L353 143C355.2 143 357 141.2 357 139 357 136.8 355.2 135 353 135L352 135C350.7 135 349.6 135.9 349.2 137.1 346.3 137.5 344 140 344 143L344 167.6C342.8 168.3 342 169.6 342 171 342 181.6 349.8 190.3 360 191.8L360 202C360 213.6 369.4 223 381 223 392.6 223 402 213.6 402 202L402 178.6C406.6 177.3 410 173 410 168Z" fill="#15C7C7"/><path d="M404 168C404 170.761 401.761 173 399 173 396.239 173 394 170.761 394 168 394 165.239 396.239 163 399 163 401.761 163 404 165.239 404 168Z" fill="#15C7C7"/></g></svg>