<svg width="96" height="96" xmlns="http://www.w3.org/2000/svg" xmlns:xlink="http://www.w3.org/1999/xlink" xml:space="preserve" overflow="hidden"><g transform="translate(-223 -235)"><path d="M267.9 307.4C267.4 307.4 266.8 307.3 266.4 306.9 265.6 306.2 265.5 304.9 266.2 304.1L270.1 299.6C270.8 298.8 272.1 298.7 272.9 299.4 273.7 300.1 273.8 301.4 273.1 302.2L269.2 306.7C268.9 307.1 268.4 307.3 267.9 307.4Z" fill="#000099"/><path d="M261.8 305.1C261.1 305.2 260.5 305 259.9 304.5 258.9 303.6 258.8 302 259.7 301L264.3 295.7C265.2 294.7 266.8 294.6 267.8 295.5 268.8 296.4 268.9 298 268 299L263.4 304.3C263 304.8 262.4 305.1 261.8 305.1Z" fill="#000099"/><path d="M255.5 301.4C254.7 301.5 253.9 301.2 253.3 300.7 252.1 299.6 251.9 297.7 253 296.5L257.6 291.2C258.7 290 260.6 289.8 261.8 290.9 263 292 263.2 293.9 262.1 295.1L257.5 300.4C257 301 256.2 301.4 255.5 301.4Z" fill="#000099"/><path d="M248.2 297.7C247.4 297.8 246.6 297.5 246 297 244.8 295.9 244.6 294 245.7 292.8L251 286.8C252.1 285.6 254 285.4 255.2 286.5 256.4 287.6 256.6 289.5 255.5 290.7L250.2 296.7C249.6 297.3 248.9 297.6 248.2 297.7Z" fill="#000099"/><path d="M227.6 275.7 235.3 280.4C236.2 281 237.5 280.7 238 279.7L247.3 264.3C247.9 263.4 247.6 262.1 246.6 261.6L239 256.9 227.6 275.7Z" fill="#000099"/><path d="M292.4 288.8 276.3 275 275.2 274 268.3 281.9C267.3 283.1 265.9 283.8 264.3 283.9 264.1 283.9 263.9 283.9 263.8 283.9 262.3 283.9 260.9 283.4 259.9 282.4 257.4 280.2 257.2 276.4 259.3 273.9L265.2 267.1C260.6 266.5 254.7 268.9 248.6 265.9L239.9 280.3 246.7 288.2 249.3 285.2C250.2 284.1 251.6 283.5 253.1 283.5L253.1 283.5C254.3 283.5 255.5 283.9 256.4 284.7 257.5 285.6 258 286.9 258.1 288.3 258.6 288.1 259.2 288 259.8 288 261 288 262.2 288.4 263.1 289.2 264.2 290.2 264.8 291.5 264.8 292.9 265.2 292.8 265.7 292.7 266.1 292.7L266.1 292.7C267.2 292.7 268.2 293.1 269.1 293.8 270 294.6 270.5 295.7 270.6 296.9 270.9 296.8 271.3 296.7 271.7 296.7L271.7 296.7C272.7 296.7 273.6 297 274.3 297.7 275.1 298.4 275.6 299.4 275.7 300.4 275.8 301.5 275.4 302.5 274.7 303.3L271.3 307.2 272.7 308.3C273.4 308.7 274.2 309 275.1 308.9 277.3 308.7 278.9 306.8 278.7 304.6 278.7 304.6 278.7 304.5 278.7 304.5 279 304.6 279.4 304.6 279.7 304.6 281.9 304.4 283.5 302.5 283.3 300.3 283.3 300.3 283.3 300.2 283.3 300.2 283.6 300.3 284 300.3 284.3 300.3 286.5 300.1 288.1 298.2 287.9 296 287.9 295.8 287.8 295.6 287.8 295.4 288.4 295.7 289.1 295.9 289.9 295.8 292.1 295.6 293.7 293.7 293.5 291.5 293.6 290.4 293.1 289.5 292.4 288.8Z" fill="#000099"/><path d="M314.4 275.7 306.7 280.4C305.8 281 304.5 280.7 304 279.7L294.7 264.3C294.1 263.4 294.4 262.1 295.4 261.6L303.1 256.9 314.4 275.7Z" fill="#000099"/><path d="M293.5 266.3C285.2 269.3 279.2 266.4 272.5 265.1 272.4 265.1 272 265 272 265 270.8 264.9 269.5 265.3 268.6 266.3L260.7 275.3C259.2 277 259.4 279.5 261.1 280.9 262 281.6 263 282 264.1 281.9 265.1 281.8 266.1 281.4 266.8 280.5 266.8 280.5 275 271.1 275 271.1L293.7 287.2 293.7 287.2 293.7 287.2C294.2 287.7 294.4 287.9 294.8 288.5L302 280.2 293.5 266.3Z" fill="#000099"/></g></svg>